<svg width="116" height="117" viewBox="0 0 116 117" fill="none" xmlns="http://www.w3.org/2000/svg">
<path d="M57.0225 4.1553V29.6553M57.0225 112.655V91.1553M37.5225 10.1553L57.0225 29.6553M57.0225 29.6553L76.5225 10.1553M57.0225 29.6553V91.1553M57.0225 91.1553L37.5225 110.655M57.0225 91.1553L76.5225 110.655" stroke="#5B5B5B" stroke-width="7" stroke-linecap="round" stroke-linejoin="round"/>
<path d="M10.1202 31.1428L32.1664 43.9574M103.925 85.6678L85.3367 74.8633M5.50814 51.0168L32.1664 43.9574M32.1664 43.9574L25.107 17.2991M32.1664 43.9574L85.3367 74.8633M85.3367 74.8633L92.3961 101.522M85.3367 74.8633L111.995 67.8039" stroke="#5B5B5B" stroke-width="7" stroke-linecap="round" stroke-linejoin="round"/>
<path d="M9.94847 86.3561L31.8802 73.3465M103.266 31.0016L84.7744 41.9705M25.0574 100.066L31.8802 73.3465M31.8802 73.3465L5.16037 66.5237M31.8802 73.3465L84.7744 41.9705M84.7744 41.9705L111.494 48.7933M84.7744 41.9705L91.5972 15.2506" stroke="#5B5B5B" stroke-width="7" stroke-linecap="round" stroke-linejoin="round"/>
</svg>
