<svg width="117" height="90" viewBox="0 0 117 90" fill="none" xmlns="http://www.w3.org/2000/svg">
<path d="M28.2852 37.3685L7.28516 52.8685L28.2852 67.3685M28.2852 37.3685H90.2852M28.2852 37.3685V29.3685C28.2852 -4.63236 89.2852 -3.13244 90.2852 29.3685V37.3685M28.2852 67.3685L20.7852 84.3676L9.28516 85.8676M28.2852 67.3685H59.2852M90.2852 67.3685L109.785 52.8685L90.2852 37.3685M90.2852 67.3685L99.7852 84.3676L109.785 85.8676M90.2852 67.3685H59.2852M59.2852 67.3685V88.8676" stroke="#5B5B5B" stroke-width="8"/>
<rect x="32.7852" y="49.3676" width="7" height="7" fill="#5B5B5B"/>
<rect x="54.7852" y="49.3676" width="7" height="7" fill="#5B5B5B"/>
<rect x="76.7852" y="49.3676" width="7" height="7" fill="#5B5B5B"/>
</svg>
