<svg width="110" height="114" viewBox="0 0 110 114" fill="none" xmlns="http://www.w3.org/2000/svg">
<path d="M7.78516 29.6474L20.9616 22.6474M101.785 29.6474L88.2852 22.1637M20.9616 22.6474L55.7852 4.14737L88.2852 22.1637M20.9616 22.6474V67.6474M20.9616 67.6474H46.7852M20.9616 67.6474H4.78516M20.9616 67.6474L46.7852 88.1474M89.2852 67.6474L88.2852 22.1637M89.2852 67.6474H62.7852M89.2852 67.6474H105.785M89.2852 67.6474L62.7852 88.1474M46.7852 67.6474V41.1474H62.7852V67.6474M46.7852 67.6474H62.7852M46.7852 67.6474V81.6474M62.7852 67.6474V81.6474M46.7852 88.1474V98.6474M46.7852 88.1474V81.6474M62.7852 88.1474V98.6474M62.7852 88.1474V81.6474M46.7852 109.147V98.6474M62.7852 109.147V98.6474M46.7852 98.6474H62.7852M46.7852 81.6474H62.7852" stroke="#5B5B5B" stroke-width="8" stroke-linecap="round" stroke-linejoin="round"/>
<rect x="51.2852" y="19.6474" width="8" height="8" fill="#5B5B5B"/>
</svg>
