<svg width="114" height="106" viewBox="0 0 114 106" fill="none" xmlns="http://www.w3.org/2000/svg">
<path d="M5.28516 101.202H26.2852M109.785 101.202H89.7852M26.2852 101.202C45.6786 82.2049 54.9171 67.3918 57.0505 41.2027M26.2852 101.202H57.0505M57.2852 17.2025C60.9511 14.5598 64.453 12.3628 67.7852 10.5968M57.2852 17.2025C53.4745 14.0792 49.8041 11.5049 46.2852 9.48922M57.2852 17.2025C57.6846 26.2354 57.6264 34.1335 57.0505 41.2027M109.785 27.2025C105.404 10.6903 95.6508 2.83215 81.2852 5.57012M81.2852 5.57012C89.6283 13.5734 92.2579 19.8913 96.2852 27.2025M81.2852 5.57012C77.1595 6.35643 72.6535 8.01667 67.7852 10.5968M67.7852 10.5968C73.421 15.3974 75.2219 18.1745 77.2852 23.2025M4.28516 27.2025C10.8442 9.16538 21.1163 1.89485 34.2852 4.66273M34.2852 4.66273C28.0974 10.211 24.9621 14.4775 20.2852 25.2027M34.2852 4.66273C38.0542 5.45493 42.0606 7.06945 46.2852 9.48922M46.2852 9.48922C38.7261 14.6845 37.1349 17.7077 36.7852 23.2025M57.0505 41.2027C40.8728 30.3229 25.888 30.9512 16.7852 40.5481M57.0505 41.2027C65.2405 36.3639 73.3101 33.328 80.4907 32.7036M106.785 70.2027C107.317 55.5003 104.522 45.6301 99.5248 39.7027M7.78516 70.2027C7.38958 56.951 10.8277 46.8289 16.7852 40.5481M34.2852 33.7027C35.0789 43.8694 36.6671 48.3973 41.2852 54.7027M16.7852 40.5481C17.2676 51.6944 19.0747 56.1257 24.2852 61.7027M80.4907 32.7036C81.117 43.8965 78.8932 48.2244 73.2852 54.7027M80.4907 32.7036C88.1628 32.0365 94.82 34.1221 99.5248 39.7027M99.5248 39.7027C97.6333 50.7921 95.7473 55.933 89.7852 61.7027M57.0505 101.202V90.7027C57.0505 74.7027 89.7852 74.2027 89.7852 90.7027V101.202M57.0505 101.202H89.7852" stroke="#5B5B5B" stroke-width="8"/>
</svg>
