<?xml version="1.0" ?><svg data-name="Layer 24" id="Layer_24" viewBox="0 0 100 100" xmlns="http://www.w3.org/2000/svg"><title/><path d="M75.69,20c-6.53,0-11,3.74-15.52,8.38a22.29,22.29,0,0,0-13.34-5.15,18.23,18.23,0,0,0-11.92,3.28L33.44,25,29.51,29,62.13,61.6l3.94-3.94-1.47-1.47a18.28,18.28,0,0,0,3.28-11.92,21.7,21.7,0,0,0-4-11.57c3.87-4,7.26-6.71,11.79-6.71H89V20ZM62.13,58.77,32.34,29l1.11-1.11L63.24,57.67Zm1-4L36.35,27.95a16.4,16.4,0,0,1,10.39-2.71A20.18,20.18,0,0,1,60,30.92l.16.16a20.17,20.17,0,0,1,5.73,13.29A16.4,16.4,0,0,1,63.16,54.76ZM87,24H75.69c-5.18,0-8.85,2.87-13,7l-1.09-1.18c4.22-4.29,8.3-7.85,14-7.85H87ZM40.15,54.75a4.08,4.08,0,1,0-2.88-1.19A4.07,4.07,0,0,0,40.15,54.75ZM38.68,49.2a2.08,2.08,0,1,1,0,2.94A2.07,2.07,0,0,1,38.68,49.2ZM34.94,61.66a4.08,4.08,0,1,0-2.89,1.2A4.09,4.09,0,0,0,34.94,61.66ZM30.58,57.3a2.08,2.08,0,1,1,2.94,2.94,2.13,2.13,0,0,1-2.94,0A2.08,2.08,0,0,1,30.58,57.3ZM21.06,64a4.08,4.08,0,1,0,5.77,0A4.05,4.05,0,0,0,21.06,64Zm4.36,4.36A2.08,2.08,0,1,1,26,66.88,2.08,2.08,0,0,1,25.42,68.35Zm5.42-22.92a4.08,4.08,0,1,0-2.89-1.19A4.07,4.07,0,0,0,30.83,45.43Zm-1.47-5.55a2.08,2.08,0,1,1-.61,1.47A2.08,2.08,0,0,1,29.36,39.88ZM25.61,52.34a4.09,4.09,0,1,0-2.89,1.19A4.09,4.09,0,0,0,25.61,52.34ZM21.26,48a2.08,2.08,0,1,1,0,2.94A2.08,2.08,0,0,1,21.26,48Zm-6.63,5.5a4.08,4.08,0,1,0,2.89,1.2A4.05,4.05,0,0,0,14.62,53.48ZM16.1,59a2.13,2.13,0,0,1-2.94,0,2.08,2.08,0,1,1,2.94,0Zm30.5-1.92a4.08,4.08,0,1,0,5.77,0A4.09,4.09,0,0,0,46.59,57.1Zm4.36,4.36a2.08,2.08,0,1,1,0-2.94A2.09,2.09,0,0,1,50.95,61.46ZM41.37,64a4.08,4.08,0,1,0,2.89,1.2A4.05,4.05,0,0,0,41.37,64Zm1.47,5.55a2.13,2.13,0,0,1-2.94,0,2.08,2.08,0,1,1,2.94,0Zm-9.58,2.55a4.08,4.08,0,1,0,2.89,1.2A4.05,4.05,0,0,0,33.27,72.12Zm1.47,5.55a2.13,2.13,0,0,1-2.94,0,2.08,2.08,0,1,1,2.94,0Z"/></svg>