<?xml version="1.0" ?><!DOCTYPE svg  PUBLIC '-//W3C//DTD SVG 1.1//EN'  'http://www.w3.org/Graphics/SVG/1.1/DTD/svg11.dtd'><svg height="100%" style="fill-rule:evenodd;clip-rule:evenodd;stroke-linecap:round;stroke-linejoin:round;stroke-miterlimit:2;" version="1.1" viewBox="0 0 32 32" width="100%" xmlSpace="preserve" xmlns="http://www.w3.org/2000/svg" xmlnsSerif="http://www.serif.com/" xmlnsXlink="http://www.w3.org/1999/xlink"><rect height="2.934" style="fill:none;stroke:#000;stroke-width:0.7px;" width="1.734" x="2" y="22.455"/><rect height="2.934" style="fill:none;stroke:#000;stroke-width:0.7px;" width="1.734" x="28.266" y="22.455"/><path d="M2,16.938l0,3.974l28,-0l-0,-3.974c-0,-0.731 -0.594,-1.324 -1.325,-1.324l-25.35,-0c-0.731,-0 -1.325,0.593 -1.325,1.324Z" style="fill:none;stroke:#000;stroke-width:0.7px;"/><path d="M4.312,8.862l0,6.752l23.376,-0l-0,-6.752c-0,-1.242 -0.496,-2.251 -1.106,-2.251l-21.164,0c-0.61,0 -1.106,1.009 -1.106,2.251Z" style="fill:none;stroke:#000;stroke-width:0.7px;"/><rect height="1.543" style="fill:none;stroke:#000;stroke-width:0.7px;" width="28" x="2" y="20.912"/><path d="M14.583,13.368c0,-0.413 -0.335,-0.748 -0.748,-0.748l-6.535,0c-0.413,0 -0.748,0.335 -0.748,0.748l-0,1.497c-0,0.413 0.335,0.749 0.748,0.749l6.535,-0c0.413,-0 0.748,-0.336 0.748,-0.749l0,-1.497Z" style="fill:none;stroke:#000;stroke-width:0.7px;"/><path d="M25.448,13.368c0,-0.413 -0.335,-0.748 -0.748,-0.748l-6.535,0c-0.413,0 -0.748,0.335 -0.748,0.748l-0,1.497c-0,0.413 0.335,0.749 0.748,0.749l6.535,-0c0.413,-0 0.748,-0.336 0.748,-0.749l0,-1.497Z" style="fill:none;stroke:#000;stroke-width:0.7px;"/></svg>