<svg width="91" height="28" viewBox="0 0 91 28" fill="none" xmlns="http://www.w3.org/2000/svg">
<path d="M11.975 3.45V14.325L4.825 3.45H0.55V21H4.825V10.175L11.975 21H16.25V3.45H11.975ZM18.4988 14C18.4988 18.4 21.2238 21.2 24.6488 21.2C26.6988 21.2 28.1738 20.225 28.9488 19V20.975C28.9488 23.325 27.6738 24.175 26.0488 24.175C24.5738 24.175 23.5238 23.5 23.2488 22.45H19.0238C19.3988 25.775 22.0988 27.875 26.2488 27.875C31.0738 27.875 33.2238 24.7 33.2238 20.975V7.05H28.9488V9.025C28.1988 7.775 26.6988 6.85 24.6488 6.85C21.2238 6.85 18.4988 9.6 18.4988 14ZM28.9488 14.025C28.9488 16.25 27.5238 17.475 25.8988 17.475C24.2988 17.475 22.8488 16.225 22.8488 14C22.8488 11.775 24.2988 10.575 25.8988 10.575C27.5238 10.575 28.9488 11.8 28.9488 14.025ZM36.3166 21H40.5916V7.05H36.3166V21ZM38.4666 5.6C39.9666 5.6 40.9916 4.575 40.9916 3.3C40.9916 2 39.9666 0.974999 38.4666 0.974999C36.9416 0.974999 35.9166 2 35.9166 3.3C35.9166 4.575 36.9416 5.6 38.4666 5.6ZM53.3146 21H57.5646V12.85C57.5646 9.1 55.4146 6.9 52.1896 6.9C50.3146 6.9 48.8146 7.725 47.9646 8.9V7.05H43.6896V21H47.9646V13.425C47.9646 11.525 49.0146 10.475 50.6396 10.475C52.2646 10.475 53.3146 11.525 53.3146 13.425V21ZM66.6854 10.275C68.1104 10.275 69.3104 11.15 69.3104 12.675H63.9604C64.2104 11.125 65.2854 10.275 66.6854 10.275ZM73.3604 16.375H68.8104C68.4604 17.125 67.7854 17.725 66.5854 17.725C65.2104 17.725 64.0854 16.875 63.9354 15.05H73.6104C73.6604 14.625 73.6854 14.2 73.6854 13.8C73.6854 9.55 70.8104 6.85 66.7354 6.85C62.5854 6.85 59.6854 9.6 59.6854 14.025C59.6854 18.45 62.6354 21.2 66.7354 21.2C70.2104 21.2 72.6854 19.1 73.3604 16.375ZM80.2156 9.025V7.05H75.9406V27.65H80.2156V19.05C80.9906 20.225 82.4656 21.2 84.5156 21.2C87.9406 21.2 90.6656 18.4 90.6656 14C90.6656 9.6 87.9406 6.85 84.5156 6.85C82.4656 6.85 80.9906 7.8 80.2156 9.025ZM86.3156 14C86.3156 16.225 84.8656 17.475 83.2406 17.475C81.6406 17.475 80.1906 16.25 80.1906 14.025C80.1906 11.8 81.6406 10.575 83.2406 10.575C84.8656 10.575 86.3156 11.775 86.3156 14Z" fill="#FF385C"/>
</svg>
